<?xml version="1.0" encoding="UTF-8"?>
<svg xmlns="http://www.w3.org/2000/svg" xmlns:xlink="http://www.w3.org/1999/xlink" width="425.7pt" height="287.1pt" viewBox="0 0 425.7 287.1" version="1.1">
<defs>
<clipPath id="clip1">
  <path d="M 12 211 L 349 211 L 349 287.101563 L 12 287.101563 Z M 12 211 "/>
</clipPath>
</defs>
<g id="surface1">
<g clip-path="url(#clip1)" clip-rule="nonzero">
<path style=" stroke:none;fill-rule:evenodd;fill:rgb(10.594177%,9.812927%,9.423828%);fill-opacity:1;" d="M 49.761719 211.796875 L 311.191406 211.796875 C 360.871094 211.796875 360.871094 287.066406 311.191406 287.066406 L 49.761719 287.066406 C 0.078125 287.066406 0.078125 211.796875 49.761719 211.796875 Z M 49.761719 211.796875 "/>
</g>
<path style=" stroke:none;fill-rule:evenodd;fill:rgb(10.594177%,9.812927%,9.423828%);fill-opacity:1;" d="M 287.210938 40.980469 C 303.621094 14.085938 342.636719 18.425781 341.003906 56.710938 C 329.847656 29.542969 310.789063 27.453125 287.210938 40.980469 Z M 340.011719 37.035156 C 349.199219 -0.0625 425.761719 18.507813 392.828125 78.5 C 404.21875 24.351563 358.1875 15.125 340.011719 37.035156 Z M 335.496094 63.765625 C 362.664063 47.28125 399.574219 69.027344 371.804688 109.40625 C 378.976563 78.378906 367.492188 60.125 335.496094 63.765625 Z M 382.472656 81.601563 C 414.78125 87.585938 416.246094 136.074219 373.015625 128.921875 C 399.367188 124.488281 407.21875 100.085938 382.472656 81.601563 Z M 283.960938 43.097656 C 267.0625 100.886719 312.515625 113.847656 344.980469 70.359375 C 339.226563 115.613281 349.3125 143.601563 387.8125 133.613281 C 378.015625 146.003906 322.089844 161.625 304.960938 123.382813 C 268.0625 111.117188 259.164063 69.90625 283.960938 43.097656 Z M 283.960938 43.097656 "/>
<path style=" stroke:none;fill-rule:evenodd;fill:rgb(10.594177%,9.812927%,9.423828%);fill-opacity:1;" d="M 309.726563 102.300781 C 293.929688 145.136719 263.191406 182.675781 221.480469 204.304688 C 231.121094 204.304688 240.765625 204.304688 250.410156 204.304688 C 291.28125 178.742188 308.039063 136.433594 309.726563 102.300781 Z M 309.726563 102.300781 "/>
<path style=" stroke:none;fill-rule:evenodd;fill:rgb(10.594177%,9.812927%,9.423828%);fill-opacity:1;" d="M 40.90625 194.246094 L 40.90625 133.746094 C 29.648438 142.394531 22.066406 146.710938 18.160156 146.710938 C 16.296875 146.710938 14.640625 145.960938 13.210938 144.484375 C 11.757813 142.988281 11.054688 141.285156 11.054688 139.332031 C 11.054688 137.0625 11.757813 135.40625 13.164063 134.335938 C 14.597656 133.269531 17.09375 131.910156 20.679688 130.226563 C 26.0625 127.683594 30.351563 125.03125 33.546875 122.238281 C 36.777344 119.445313 39.613281 116.3125 42.109375 112.863281 C 44.585938 109.410156 46.195313 107.277344 46.96875 106.484375 C 47.71875 105.6875 49.121094 105.277344 51.214844 105.277344 C 53.574219 105.277344 55.460938 106.1875 56.867188 108.003906 C 58.292969 109.820313 58.996094 112.339844 58.996094 115.515625 L 58.996094 191.660156 C 58.996094 200.582031 55.957031 205.03125 49.898438 205.03125 C 47.167969 205.03125 45.015625 204.121094 43.359375 202.304688 C 41.726563 200.488281 40.90625 197.8125 40.90625 194.246094 Z M 142.90625 155.539063 C 142.90625 162.828125 142.453125 169.070313 141.566406 174.292969 C 140.679688 179.535156 139.046875 184.28125 136.664063 188.527344 C 133.644531 193.769531 129.738281 197.789063 124.949219 200.625 C 120.160156 203.464844 114.847656 204.894531 108.988281 204.894531 C 102.246094 204.894531 96.207031 202.988281 90.871094 199.171875 C 85.515625 195.359375 81.496094 190.09375 78.792969 183.351563 C 77.410156 179.671875 76.414063 175.585938 75.777344 171.136719 C 75.117188 166.6875 74.796875 161.875 74.796875 156.675781 C 74.796875 149.976563 75.164063 143.964844 75.867188 138.605469 C 76.570313 133.226563 77.683594 128.617188 79.183594 124.757813 C 81.816406 118.378906 85.605469 113.519531 90.601563 110.160156 C 95.597656 106.824219 101.539063 105.144531 108.445313 105.144531 C 113.03125 105.144531 117.164063 105.890625 120.886719 107.367188 C 124.609375 108.867188 127.878906 111.023438 130.691406 113.882813 C 133.507813 116.742188 135.890625 120.285156 137.84375 124.484375 C 141.226563 131.816406 142.90625 142.167969 142.90625 155.539063 Z M 124.675781 154.222656 C 124.675781 146.121094 124.199219 139.46875 123.222656 134.316406 C 122.246094 129.140625 120.589844 125.234375 118.296875 122.601563 C 115.980469 119.96875 112.804688 118.652344 108.71875 118.652344 C 102.859375 118.652344 98.792969 121.601563 96.527344 127.503906 C 94.234375 133.382813 93.097656 142.464844 93.097656 154.746094 C 93.097656 163.078125 93.574219 169.910156 94.546875 175.222656 C 95.527344 180.558594 97.183594 184.574219 99.476563 187.300781 C 101.789063 190.023438 104.902344 191.386719 108.855469 191.386719 C 112.941406 191.386719 116.117188 189.980469 118.433594 187.140625 C 120.726563 184.304688 122.359375 180.238281 123.289063 174.972656 C 124.222656 169.683594 124.675781 162.78125 124.675781 154.222656 Z M 223.835938 155.539063 C 223.835938 162.828125 223.382813 169.070313 222.496094 174.292969 C 221.613281 179.535156 219.976563 184.28125 217.59375 188.527344 C 214.574219 193.769531 210.671875 197.789063 205.878906 200.625 C 201.089844 203.464844 195.777344 204.894531 189.921875 204.894531 C 183.179688 204.894531 177.140625 202.988281 171.804688 199.171875 C 166.445313 195.359375 162.429688 190.09375 159.726563 183.351563 C 158.34375 179.671875 157.34375 175.585938 156.703125 171.136719 C 156.050781 166.6875 155.730469 161.875 155.730469 156.675781 C 155.730469 149.976563 156.09375 143.964844 156.800781 138.605469 C 157.503906 133.226563 158.617188 128.617188 160.113281 124.757813 C 162.746094 118.378906 166.539063 113.519531 171.53125 110.160156 C 176.527344 106.824219 182.476563 105.144531 189.371094 105.144531 C 193.960938 105.144531 198.09375 105.890625 201.816406 107.367188 C 205.539063 108.867188 208.808594 111.023438 211.621094 113.882813 C 214.4375 116.742188 216.820313 120.285156 218.773438 124.484375 C 222.15625 131.816406 223.835938 142.167969 223.835938 155.539063 Z M 205.609375 154.222656 C 205.609375 146.121094 205.132813 139.46875 204.15625 134.316406 C 203.179688 129.140625 201.523438 125.234375 199.226563 122.601563 C 196.914063 119.96875 193.734375 118.652344 189.648438 118.652344 C 183.789063 118.652344 179.726563 121.601563 177.453125 127.503906 C 175.164063 133.382813 174.03125 142.464844 174.03125 154.746094 C 174.03125 163.078125 174.507813 169.910156 175.484375 175.222656 C 176.453125 180.558594 178.117188 184.574219 180.410156 187.300781 C 182.726563 190.023438 185.835938 191.386719 189.785156 191.386719 C 193.871094 191.386719 197.050781 189.980469 199.363281 187.140625 C 201.65625 184.304688 203.289063 180.238281 204.222656 174.972656 C 205.152344 169.683594 205.609375 162.78125 205.609375 154.222656 Z M 205.609375 154.222656 "/>
<path style=" stroke:none;fill-rule:evenodd;fill:rgb(10.594177%,9.812927%,9.423828%);fill-opacity:1;" d="M 331.953125 178.71875 C 331.953125 173.019531 331.339844 168.820313 330.09375 166.1875 C 328.84375 163.554688 326.664063 162.238281 323.507813 162.238281 C 321.285156 162.238281 319.558594 162.851563 318.3125 164.097656 C 317.085938 165.347656 316.199219 167.164063 315.699219 169.59375 C 315.179688 172 314.929688 175.132813 314.929688 178.992188 C 314.929688 184.9375 315.5625 189.277344 316.835938 192.023438 C 318.078125 194.769531 320.308594 196.152344 323.507813 196.152344 C 326.757813 196.152344 328.953125 194.746094 330.160156 191.933594 C 331.363281 189.117188 331.953125 184.710938 331.953125 178.71875 Z M 344.394531 179.398438 C 344.394531 187.867188 342.535156 194.15625 338.808594 198.289063 C 335.085938 202.398438 329.980469 204.460938 323.507813 204.460938 C 319.46875 204.460938 315.859375 203.578125 312.703125 201.808594 C 309.523438 200.035156 307.050781 197.3125 305.257813 193.632813 C 303.464844 189.933594 302.554688 185.394531 302.554688 179.992188 C 302.554688 171.339844 304.214844 164.847656 307.503906 160.46875 C 310.820313 156.109375 316.0625 153.929688 323.238281 153.929688 C 326.710938 153.929688 329.730469 154.453125 332.316406 155.519531 C 334.90625 156.585938 337.132813 158.175781 338.96875 160.308594 C 340.808594 162.441406 342.171875 165.074219 343.054688 168.253906 C 343.941406 171.433594 344.394531 175.132813 344.394531 179.398438 Z M 263.847656 130.636719 C 263.847656 124.847656 263.238281 120.625 261.988281 117.96875 C 260.738281 115.335938 258.539063 114.019531 255.40625 114.019531 C 253.269531 114.019531 251.566406 114.65625 250.296875 115.902344 C 249.027344 117.175781 248.164063 119.035156 247.703125 121.511719 C 247.230469 123.964844 247.003906 127.09375 247.003906 130.910156 C 247.003906 134.859375 247.230469 138.082031 247.703125 140.558594 C 248.164063 143.03125 249.027344 144.917969 250.273438 146.164063 C 251.496094 147.4375 253.226563 148.074219 255.40625 148.074219 C 258.675781 148.074219 260.898438 146.664063 262.078125 143.871094 C 263.257813 141.078125 263.847656 136.675781 263.847656 130.636719 Z M 276.289063 131.320313 C 276.289063 139.785156 274.429688 146.074219 270.703125 150.207031 C 266.984375 154.316406 261.871094 156.382813 255.40625 156.382813 C 251.410156 156.382813 247.824219 155.519531 244.644531 153.746094 C 241.464844 152 238.992188 149.273438 237.222656 145.550781 C 235.449219 141.828125 234.566406 137.265625 234.566406 131.910156 C 234.566406 126.140625 235.246094 121.328125 236.628906 117.46875 C 237.992188 113.632813 240.238281 110.707031 243.304688 108.707031 C 246.390625 106.710938 250.34375 105.710938 255.132813 105.710938 C 258.578125 105.710938 261.621094 106.234375 264.234375 107.300781 C 266.867188 108.367188 269.070313 110 270.910156 112.203125 C 272.726563 114.382813 274.066406 117.0625 274.949219 120.21875 C 275.835938 123.351563 276.289063 127.050781 276.289063 131.320313 Z M 276.289063 131.320313 "/>
<path style=" stroke:none;fill-rule:evenodd;fill:rgb(100%,100%,100%);fill-opacity:1;" d="M 75.546875 258.253906 C 75.546875 259.769531 75.183594 261.417969 74.421875 263.191406 C 73.679688 264.972656 72.496094 266.710938 70.882813 268.417969 C 69.277344 270.121094 67.214844 271.511719 64.71875 272.574219 C 62.210938 273.640625 59.289063 274.175781 55.960938 274.175781 C 53.441406 274.175781 51.148438 273.941406 49.074219 273.464844 C 47.011719 272.984375 45.128906 272.238281 43.445313 271.222656 C 41.765625 270.210938 40.203125 268.882813 38.789063 267.222656 C 37.53125 265.730469 36.449219 264.046875 35.558594 262.1875 C 34.664063 260.324219 33.996094 258.332031 33.546875 256.222656 C 33.105469 254.117188 32.882813 251.867188 32.882813 249.503906 C 32.882813 245.648438 33.441406 242.195313 34.566406 239.152344 C 35.691406 236.097656 37.292969 233.503906 39.378906 231.328125 C 41.472656 229.167969 43.914063 227.519531 46.722656 226.382813 C 49.53125 225.257813 52.527344 224.6875 55.707031 224.6875 C 59.582031 224.6875 63.027344 225.457031 66.058594 227.003906 C 69.078125 228.554688 71.394531 230.460938 73.011719 232.734375 C 74.617188 235.007813 75.429688 237.15625 75.429688 239.1875 C 75.429688 240.289063 75.027344 241.269531 74.246094 242.117188 C 73.46875 242.964844 72.519531 243.386719 71.40625 243.386719 C 70.164063 243.386719 69.234375 243.097656 68.621094 242.507813 C 67.996094 241.925781 67.304688 240.914063 66.542969 239.476563 C 65.277344 237.101563 63.792969 235.332031 62.089844 234.148438 C 60.371094 232.980469 58.269531 232.386719 55.773438 232.386719 C 51.78125 232.386719 48.617188 233.902344 46.253906 236.925781 C 43.894531 239.953125 42.710938 244.257813 42.710938 249.828125 C 42.710938 253.550781 43.234375 256.648438 44.28125 259.109375 C 45.320313 261.585938 46.796875 263.433594 48.71875 264.648438 C 50.632813 265.863281 52.871094 266.476563 55.449219 266.476563 C 58.234375 266.476563 60.585938 265.785156 62.511719 264.40625 C 64.441406 263.023438 65.890625 260.996094 66.871094 258.308594 C 67.285156 257.050781 67.792969 256.023438 68.410156 255.234375 C 69.011719 254.429688 69.992188 254.039063 71.339844 254.039063 C 72.496094 254.039063 73.492188 254.441406 74.316406 255.242188 C 75.140625 256.046875 75.546875 257.050781 75.546875 258.253906 Z M 108.828125 224.6875 C 113.800781 224.6875 118.058594 225.691406 121.621094 227.707031 C 125.175781 229.726563 127.871094 232.578125 129.703125 236.289063 C 131.53125 240 132.445313 244.355469 132.445313 249.371094 C 132.445313 253.070313 131.941406 256.425781 130.9375 259.457031 C 129.9375 262.476563 128.441406 265.105469 126.4375 267.324219 C 124.429688 269.542969 121.96875 271.234375 119.058594 272.417969 C 116.140625 273.585938 112.796875 274.175781 109.03125 274.175781 C 105.285156 274.175781 101.933594 273.574219 98.96875 272.359375 C 96.015625 271.15625 93.539063 269.453125 91.558594 267.257813 C 89.574219 265.0625 88.078125 262.410156 87.066406 259.324219 C 86.046875 256.234375 85.546875 252.894531 85.546875 249.304688 C 85.546875 245.628906 86.074219 242.25 87.132813 239.1875 C 88.191406 236.109375 89.71875 233.503906 91.722656 231.351563 C 93.730469 229.191406 96.160156 227.539063 99.035156 226.402344 C 101.910156 225.257813 105.175781 224.6875 108.828125 224.6875 Z M 122.613281 249.304688 C 122.613281 245.792969 122.046875 242.761719 120.921875 240.1875 C 119.785156 237.625 118.164063 235.675781 116.0625 234.359375 C 113.96875 233.046875 111.558594 232.386719 108.828125 232.386719 C 106.890625 232.386719 105.109375 232.753906 103.453125 233.480469 C 101.820313 234.214844 100.40625 235.273438 99.214844 236.667969 C 98.03125 238.058594 97.09375 239.84375 96.40625 242.003906 C 95.726563 244.167969 95.378906 246.609375 95.378906 249.304688 C 95.378906 252.023438 95.726563 254.484375 96.40625 256.679688 C 97.09375 258.878906 98.066406 260.703125 99.3125 262.152344 C 100.5625 263.601563 101.996094 264.683594 103.621094 265.394531 C 105.242188 266.121094 107.023438 266.476563 108.964844 266.476563 C 111.449219 266.476563 113.722656 265.851563 115.804688 264.617188 C 117.890625 263.378906 119.539063 261.460938 120.765625 258.867188 C 121.996094 256.28125 122.613281 253.09375 122.613281 249.304688 Z M 172.773438 233.503906 L 162.199219 233.503906 L 162.199219 268.269531 C 162.199219 270.265625 161.753906 271.757813 160.863281 272.730469 C 159.96875 273.699219 158.8125 274.175781 157.398438 274.175781 C 155.96875 274.175781 154.800781 273.6875 153.898438 272.707031 C 152.996094 271.726563 152.539063 270.242188 152.539063 268.269531 L 152.539063 233.503906 L 141.960938 233.503906 C 140.300781 233.503906 139.078125 233.136719 138.273438 232.410156 C 137.460938 231.675781 137.058594 230.714844 137.058594 229.511719 C 137.058594 228.277344 137.484375 227.296875 138.320313 226.582031 C 139.152344 225.859375 140.367188 225.5 141.960938 225.5 L 172.773438 225.5 C 174.453125 225.5 175.695313 225.867188 176.519531 226.617188 C 177.328125 227.351563 177.746094 228.320313 177.746094 229.511719 C 177.746094 230.714844 177.320313 231.675781 176.496094 232.410156 C 175.671875 233.136719 174.433594 233.503906 172.773438 233.503906 Z M 218.078125 233.503906 L 207.496094 233.503906 L 207.496094 268.269531 C 207.496094 270.265625 207.054688 271.757813 206.164063 272.730469 C 205.273438 273.699219 204.113281 274.175781 202.699219 274.175781 C 201.273438 274.175781 200.101563 273.6875 199.199219 272.707031 C 198.296875 271.726563 197.839844 270.242188 197.839844 268.269531 L 197.839844 233.503906 L 187.265625 233.503906 C 185.605469 233.503906 184.378906 233.136719 183.578125 232.410156 C 182.761719 231.675781 182.359375 230.714844 182.359375 229.511719 C 182.359375 228.277344 182.785156 227.296875 183.621094 226.582031 C 184.453125 225.859375 185.671875 225.5 187.265625 225.5 L 218.078125 225.5 C 219.761719 225.5 220.996094 225.867188 221.820313 226.617188 C 222.636719 227.351563 223.046875 228.320313 223.046875 229.511719 C 223.046875 230.714844 222.621094 231.675781 221.800781 232.410156 C 220.972656 233.136719 219.738281 233.503906 218.078125 233.503906 Z M 252.46875 224.6875 C 257.441406 224.6875 261.695313 225.691406 265.261719 227.707031 C 268.816406 229.726563 271.515625 232.578125 273.339844 236.289063 C 275.164063 240 276.078125 244.355469 276.078125 249.371094 C 276.078125 253.070313 275.578125 256.425781 274.578125 259.457031 C 273.574219 262.476563 272.078125 265.105469 270.078125 267.324219 C 268.070313 269.542969 265.609375 271.234375 262.699219 272.417969 C 259.78125 273.585938 256.4375 274.175781 252.664063 274.175781 C 248.925781 274.175781 245.570313 273.574219 242.605469 272.359375 C 239.652344 271.15625 237.179688 269.453125 235.195313 267.257813 C 233.214844 265.0625 231.71875 262.410156 230.703125 259.324219 C 229.691406 256.234375 229.191406 252.894531 229.191406 249.304688 C 229.191406 245.628906 229.714844 242.25 230.773438 239.1875 C 231.828125 236.109375 233.359375 233.503906 235.363281 231.351563 C 237.371094 229.191406 239.800781 227.539063 242.675781 226.402344 C 245.550781 225.257813 248.8125 224.6875 252.46875 224.6875 Z M 266.253906 249.304688 C 266.253906 245.792969 265.6875 242.761719 264.558594 240.1875 C 263.421875 237.625 261.808594 235.675781 259.703125 234.359375 C 257.605469 233.046875 255.199219 232.386719 252.46875 232.386719 C 250.53125 232.386719 248.746094 232.753906 247.097656 233.480469 C 245.460938 234.214844 244.039063 235.273438 242.851563 236.667969 C 241.671875 238.058594 240.734375 239.84375 240.039063 242.003906 C 239.363281 244.167969 239.019531 246.609375 239.019531 249.304688 C 239.019531 252.023438 239.363281 254.484375 240.039063 256.679688 C 240.734375 258.878906 241.703125 260.703125 242.953125 262.152344 C 244.199219 263.601563 245.636719 264.683594 247.265625 265.394531 C 248.882813 266.121094 250.664063 266.476563 252.601563 266.476563 C 255.089844 266.476563 257.359375 265.851563 259.445313 264.617188 C 261.527344 263.378906 263.179688 261.460938 264.40625 258.867188 C 265.640625 256.28125 266.253906 253.09375 266.253906 249.304688 Z M 300.523438 230.503906 L 319.15625 258.710938 L 319.15625 230.238281 C 319.15625 228.386719 319.558594 227.003906 320.347656 226.082031 C 321.140625 225.15625 322.210938 224.6875 323.570313 224.6875 C 324.960938 224.6875 326.054688 225.144531 326.867188 226.070313 C 327.664063 226.996094 328.070313 228.386719 328.070313 230.238281 L 328.070313 267.882813 C 328.070313 272.082031 326.328125 274.175781 322.84375 274.175781 C 321.976563 274.175781 321.195313 274.054688 320.492188 273.796875 C 319.800781 273.554688 319.144531 273.152344 318.53125 272.605469 C 317.929688 272.070313 317.363281 271.425781 316.835938 270.699219 C 316.3125 269.976563 315.789063 269.230469 315.265625 268.460938 L 297.089844 240.589844 L 297.089844 268.628906 C 297.089844 270.457031 296.664063 271.835938 295.820313 272.773438 C 294.972656 273.710938 293.882813 274.175781 292.554688 274.175781 C 291.183594 274.175781 290.078125 273.710938 289.257813 272.761719 C 288.433594 271.816406 288.019531 270.433594 288.019531 268.628906 L 288.019531 231.707031 C 288.019531 230.136719 288.199219 228.910156 288.539063 228.019531 C 288.953125 227.039063 289.636719 226.238281 290.59375 225.613281 C 291.554688 225 292.589844 224.6875 293.703125 224.6875 C 294.574219 224.6875 295.308594 224.832031 295.933594 225.113281 C 296.554688 225.390625 297.101563 225.78125 297.570313 226.257813 C 298.039063 226.738281 298.507813 227.351563 298.996094 228.121094 C 299.488281 228.878906 299.996094 229.667969 300.523438 230.503906 Z M 300.523438 230.503906 "/>
</g>
</svg>